<svg width="21" height="20" viewBox="0 0 21 20" fill="none" xmlns="http://www.w3.org/2000/svg">
<g clip-path="url(#clip0_1_863)">
<path d="M0.109375 10C0.109375 4.47715 4.58653 0 10.1094 0C15.6322 0 20.1094 4.47715 20.1094 10C20.1094 15.5228 15.6322 20 10.1094 20C4.58653 20 0.109375 15.5228 0.109375 10Z" fill="#151718"/>
<path d="M10.5194 14.645L9.49337 13.63L12.5604 10.562H5.10938V9.082H12.5614L9.49438 6.019L10.5184 5L15.3404 9.822L10.5194 14.645Z" fill="white"/>
</g>
<defs>
<clipPath id="clip0_1_863">
<path d="M0.109375 10C0.109375 4.47715 4.58653 0 10.1094 0C15.6322 0 20.1094 4.47715 20.1094 10C20.1094 15.5228 15.6322 20 10.1094 20C4.58653 20 0.109375 15.5228 0.109375 10Z" fill="white"/>
</clipPath>
</defs>
</svg>
